<svg xmlns="http://www.w3.org/2000/svg" viewBox="0 0 300 300"><defs><style>.cls-1{fill:#fff;}.cls-2,.cls-4,.cls-5{fill:none;stroke:#4680ff;}.cls-2{stroke-miterlimit:10;}.cls-2,.cls-4{stroke-width:8.09px;}.cls-3{fill:#4680ff;}.cls-4,.cls-5{stroke-linecap:round;stroke-linejoin:round;}.cls-5{stroke-width:5.78px;}</style></defs><title>Ativo 1</title><g id="Camada_2" data-name="Camada 2"><g id="Camada_1-2" data-name="Camada 1"><rect class="cls-1" width="300" height="300"/><path class="cls-2" d="M252.1,148.3c-5-15.1-4.5-37.7-9-50.8-13.9-11.2-32.7-19.3-51.6-19.3a81.3,81.3,0,0,0-32.6,6.9c0,.1-11.7,6.7-16.3,10.2-5.4,12.6-4.5,37-9.9,53a56.6,56.6,0,0,1-6.4,13.5c16.4,42,38.1,71.7,65.1,61.4,27.5,10.4,49.2-20.7,65.6-63.9A54.5,54.5,0,0,1,252.1,148.3Z"/><path class="cls-2" d="M158.9,84.5c-6.5-14.1-45-17.8-63.4,18.9-10.2,20.3,1,68.5,17.8,67.3,8-.6,14.9-9.4,19.3-22.6,5.4-16.4,4.4-41.4,10.2-53.7C147.1,85.3,159.3,85.6,158.9,84.5Z"/><path class="cls-2" d="M225.2,85.7c6.5-14.1,45.6-18.9,64,17.8,10.2,20.3-1,68.5-17.8,67.3-8-.6-14.9-9.4-19.3-22.6-5.4-16.4-4.4-41.4-10.2-53.7C237.5,85.3,224.7,86.7,225.2,85.7Z"/><line class="cls-2" x1="191.4" y1="221.3" x2="191.4" y2="183.1"/><path class="cls-3" d="M208.5,185.5c-.2-2-8.7-7.3-17.1-7.3s-17.1,5.3-17.3,7.3c-.6,3.9,11.9,19.3,17,19.3h.5C196.7,204.8,209.1,189.4,208.5,185.5Z"/><circle class="cls-3" cx="159.8" cy="147.8" r="10.6"/><circle class="cls-3" cx="223.1" cy="147.9" r="10.6"/><path class="cls-4" d="M108.2,189.6s-7.6,19.8-27.4,7.3"/><path class="cls-4" d="M107.9,189.6s7.6,19.8,27.4,7.3"/><path class="cls-2" d="M129.6,155.7"/><path class="cls-2" d="M131.3,152"/><path class="cls-2" d="M130.4,153.9"/><path class="cls-2" d="M126.2,161.7c-3.7,5.4-8.1,8.8-12.8,9.1-14.3,1-24.6-34-20.9-56.8H85.2s-20.8-36.3-24.5-39-19.4,25.2-19.4,89.6c0,47.2,33.3,60.6,66.8,60.9,17.9.1,35.9.9,48.7-11.4C145.1,202.8,134.8,184,126.2,161.7Z"/><line class="cls-5" x1="7" y1="173.6" x2="56.5" y2="170.4"/><line class="cls-5" x1="15.3" y1="198.1" x2="56.5" y2="184.8"/><circle class="cls-3" cx="77.4" cy="153.5" r="9.2"/><path class="cls-3" d="M119.4,180.7c-.2-5.9-22.4-5.9-22.6,0s7.3,11.4,11.2,11.6h0C112.2,192.1,119.6,186.5,119.4,180.7Z"/><path class="cls-3" d="M108,210.3h0c8.1,0,9.8-7.5,9.8-7.5l-9.8-11h0l-9.8,11a9.7,9.7,0,0,0,9.8,7.5"/></g></g></svg>