<?xml version="1.0" encoding="utf-8"?>
<!-- Generator: Adobe Illustrator 21.0.2, SVG Export Plug-In . SVG Version: 6.00 Build 0)  -->
<svg version="1.1" id="Camada_1" xmlns="http://www.w3.org/2000/svg" xmlns:xlink="http://www.w3.org/1999/xlink" x="0px" y="0px"
	 viewBox="0 0 798.5 152.7" style="enable-background:new 0 0 798.5 152.7;" xml:space="preserve">
<style type="text/css">
	.st0{display:none;}
	.st1{display:inline;}
	.st2{fill:#41AA31;}
	.st3{display:inline;fill:#41AA31;}
	.st4{fill:#4680FF;}
	.st5{fill:none;stroke:#4680FF;stroke-width:7;stroke-miterlimit:10;}
	.st6{fill:none;stroke:#4680FF;stroke-width:7;stroke-linecap:round;stroke-linejoin:round;stroke-miterlimit:10;}
	.st7{fill:none;stroke:#4680FF;stroke-width:5;stroke-linecap:round;stroke-linejoin:round;stroke-miterlimit:10;}
</style>
<g class="st0">
	<g class="st1">
		<circle class="st2" cx="259.3" cy="100.7" r="1.4"/>
		<circle class="st2" cx="275" cy="100.9" r="1.4"/>
		<circle class="st2" cx="326.4" cy="100.7" r="1.4"/>
		<circle class="st2" cx="371.2" cy="100.7" r="1.4"/>
		<circle class="st2" cx="387" cy="100.7" r="1.4"/>
		<circle class="st2" cx="438.2" cy="100.7" r="1.4"/>
	</g>
	<circle class="st3" cx="483.1" cy="100.7" r="1.4"/>
	<circle class="st3" cx="534.9" cy="100.7" r="1.4"/>
</g>
<g>
	<g>
		<g>
			<g>
				<path class="st4" d="M341.4,114.9c-3.6,4.8-7.9,8.5-12.9,11.2c-5.1,2.6-10.7,3.9-16.7,3.9c-3.2,0-6.1-0.3-8.7-1s-5.6-1.9-9-3.7
					c-1.5-1.4-2.1-2.3-1.7-3c0.4-0.7,0.6-1.1,0.4-1.4l-0.1,6.2c-1,4.8-3.9,7-9,6.6c-5-0.4-7.6-2.6-7.9-6.6V27.2
					c1.1-5.5,4-8.1,8.8-7.9c4.8,0.3,7.4,2.9,8,7.9v41c8.3-3.3,15.2-4.8,20.9-4.8c8.7,0,15.6,2.2,20.5,6.5c5,4.4,8.3,8.7,9.9,12.8
					c1.7,4.3,2.5,8.5,2.5,13.2C346.5,102.3,344.7,108.7,341.4,114.9z M326.1,106.5c1.4-2.5,2.2-5.5,2.2-9.1c0-5-1.5-9.4-4.4-12.9
					c-3-3.7-7-5.5-12-5.5c-7,0.1-11.8,1.9-14.7,5.4c-2.9,3.4-4.3,7.7-4.3,12.7c0,4.3,1.1,8,3.4,11.3c2.3,3.3,5,5.4,8,6.2
					c3,0.8,5.2,1.2,6.5,1.2c3.3,0,6.1-0.8,8.5-2.5C321.5,111.5,323.9,109.3,326.1,106.5z"/>
				<g>
					<path class="st4" d="M368.2,127.3c-0.8,4.8-3.9,7-9.1,6.7c-5.4-0.3-8.3-2.7-8.7-7V63.2c1-5.4,3.9-8.1,8.8-7.9
						c4.8,0.1,7.9,2.5,9.1,7.3v64.7L368.2,127.3L368.2,127.3z"/>
					<circle class="st4" cx="358.5" cy="44" r="9.3"/>
				</g>
				<path class="st4" d="M435.2,127c-4.4,3.3-8.3,5.1-11.8,5.7c-3.6,0.6-8.7,0.9-15.3,0.9c-7.4,0-14-1.7-19.8-5
					c-5.9-3.3-10.3-8.7-13.3-16c-2-6.3-3-12.3-3-18s0.9-11,2.7-16.3c1.7-5.1,4.6-9.6,8.6-13.3c3.9-3.7,8.3-6.3,13.3-7.7
					s10-2.3,15.4-2.3c6.3,0,13.4,2.3,21.1,6.7c6,4.1,7.6,8.6,4.7,13.3c-2.7,4.7-6.7,5.6-11.8,2.4c-4.9-2.1-7.9-3.4-9.1-3.7
					c-1.1-0.3-3.1-0.4-6-0.4c-3.1,0-6,0.4-8.6,1.4s-4.7,2.4-6.4,4.3c-4,5-6,10.4-6,16c0,4.4,0.9,8.1,2.4,11.1c1.6,2.9,3.6,5,6.1,6.3
					c3.7,2.7,7.9,4,12,4c3,0,6-0.6,8.9-1.7c3.1-1.3,5.7-2.4,7.9-3.4c5.4-2.6,9.4-1.7,11.7,2.6C441.1,118.1,440.1,122.7,435.2,127z"
					/>
				<path class="st4" d="M501.1,126.5c-1.1,4.2-4.1,6.4-8.7,6.6c-4.6,0.1-7.5-2-8.7-6.6V89.8c-0.5-3.4-1.8-6.1-3.5-8.3
					c-1.8-2.2-4.4-3.1-7.8-3c-4.2,0.7-7.2,2-9,4.2c-1.9,2.2-3,4.8-3.5,8.1v35.8c-1.1,4.4-4.1,6.4-8.9,6.3c-4.8-0.1-7.5-2.3-8.1-6.3
					V27.2c0.4-5.5,3.3-8.2,8.3-8.3c5.1-0.1,7.9,2.6,8.3,8.3v43c0-1.1,1.6-2.5,4.8-4.1c3.3-1.6,7-2.5,11.3-2.5
					c7.1,0,13.7,2.5,19.7,7.5c3.7,4.8,5.6,10.5,5.6,16.9v38.5H501.1z"/>
				<g>
					<path class="st4" d="M522.4,127.3c-0.8,4.8-3.9,7-9.1,6.7c-5.4-0.3-8.3-2.7-8.7-7V63.2c1-5.4,3.9-8.1,8.8-7.9
						c4.8,0.1,7.9,2.5,9.1,7.3v64.7L522.4,127.3L522.4,127.3z"/>
					<circle class="st4" cx="513.1" cy="44" r="9.3"/>
				</g>
				<path class="st4" d="M593,126.5c-1,4.4-4.3,6.5-9.6,6.4c-5.3-0.1-8.2-2.3-8.5-6.5V83.9c-1.2-2.1-3.1-3.9-5.9-5.5
					c-2.7-1.6-5.7-2.3-9-2.3c-2,0-3.9,0.3-5.7,0.8c-2.5,1-4.8,2.5-6.9,4c-2.1,1.6-3.5,3.3-4.4,4.8v40.5c-2,5.2-5.1,7.4-9.4,6.9
					c-4.3-0.5-6.8-2.9-7.3-6.9V64c0.4-6.1,3.4-9.1,8.9-9.3c5.5-0.1,7.9,3,7.6,9.3v5c-1.4,1.2,0.3,0.1,5.3-3.3
					c5-3.4,10.6-5.1,16.5-5.1c7.8,0,14.3,2.1,19.4,6.1c5.1,4.2,8.2,9.6,9.1,16.8v42.9H593V126.5z"/>
				<path class="st4" d="M655.2,126.6c-1.1,4.2-4.1,6.4-8.7,6.6c-4.6,0.1-7.5-2-8.7-6.6V89.9c-0.5-3.4-1.8-6.1-3.5-8.3
					c-1.8-2.2-4.4-3.1-7.8-3c-4.2,0.7-7.2,2-9,4.2c-1.9,2.2-3,4.8-3.5,8.1v35.8c-1.1,4.4-4.1,6.4-8.9,6.3s-7.5-2.3-8.1-6.3V27.3
					c0.4-5.5,3.3-8.2,8.3-8.3c5.1-0.1,7.9,2.6,8.3,8.3v43c0-1.1,1.6-2.5,4.8-4.1c3.3-1.6,7-2.5,11.3-2.5c7.1,0,13.7,2.5,19.7,7.5
					c3.7,4.8,5.6,10.5,5.6,16.9v38.5H655.2z"/>
				<path class="st4" d="M789.6,68.7c0.4,0.5,0.6,1.1,0.8,1.7c1.2,5,0,8.6-3.5,10.4c-3.6,1.8-7.5,1.4-11.7-1.4
					c-0.4-0.3-0.7-0.6-1-0.9c-2.1-2.5-4.3-4.4-6.7-5.7c-2.6-1.4-5.5-2.1-8.8-2.1c-2.2,0-4,0.4-5.5,1.1c-1.4,0.7-2.3,1.7-2.6,2.8
					c-0.3,1.1-0.6,1.9-0.6,2.6c0,1.2,0.8,2.5,2.5,3.7c0.4,0.3,0.8,0.5,1.2,0.6l23.3,8.2c4.3,1.7,7.4,4.1,9.8,7.7
					c2.3,3.4,3.6,7.3,3.6,11.6c0,4.8-1.5,9.6-4.7,14.2c-3.1,4.4-7.2,7.4-12.5,8.7c-0.3,0.1-0.5,0.1-0.8,0.1c-1.9,0.1-4,0.4-5.9,0.7
					c-2.2,0.3-4.3,0.4-6.2,0.4c-6.5,0-12.5-1.1-18-3.2c-5.3-2-10.2-5.9-14.7-11.7c-0.3-0.4-0.6-0.9-0.8-1.5c-1.4-4.7-0.5-8.6,3-11.5
					c3.5-3,7.9-2.2,13.2,1.9c0.3,0.2,0.5,0.4,0.7,0.7c2.6,3.1,5.3,5.5,7.7,7.1c2.6,1.7,4.9,2.4,7.5,2.3c4.3,0,7.1-0.8,8.5-1.8
					c0.9-0.6,1.6-1.4,2.2-2.5c0.9-1.7,0.7-3.8-0.5-5.2l0,0c-1-1.2-2.2-2.1-4.1-2.8c-4.8-1.2-9.9-3.2-15.2-5.6
					c-5.1-2.4-9.6-4.8-13.5-7.3c-0.4-0.3-0.8-0.6-1.1-0.9c-3.4-4-5.2-8.4-5.2-13.2c0-7.6,2.6-13.1,7.9-16.7
					c5.2-3.6,9.6-5.6,13.4-6.3c3.6-0.7,7.8-1,12.5-1c0.2,0,0.4,0,0.6,0c6.1,0.6,10.9,2.1,14.7,4.4C782.7,60.5,786.2,64,789.6,68.7z"
					/>
				<path class="st4" d="M715.1,67.5c-6.9-8-15.1-12-24.5-12c-9.2,0-16.9,3.9-23.3,12.1c-6.4,8.2-9.7,17.5-9.7,28
					c0,11.3,3.4,20.4,9.9,27.5c6.5,6.9,14.6,10.4,23.8,10.4c9.2,0,17.1-3.4,23.8-10.4c6.8-6.9,10.2-16.1,10.2-27.3
					C725.4,84.9,721.8,75.5,715.1,67.5z M691.8,114.3c-8.5,0-15.3-9-15.3-20s6.9-20,15.3-20c8.5,0,15.3,9,15.3,20
					S700.3,114.3,691.8,114.3z"/>
			</g>
		</g>
	</g>
	<g>
		<g>
			<g>
				<path class="st5" d="M219.8,74.9c-4.3-13.1-3.9-32.6-7.8-44c-12-9.7-28.3-16.7-44.7-16.7c-9.5,0-19.5,2.1-28.2,6
					c0,0.1-10.1,5.8-14.1,8.8c-4.7,10.9-3.9,32-8.6,45.9c-1.5,4.6-3.4,8.5-5.5,11.7c14.2,36.4,33,62.1,56.4,53.2
					c23.8,9,42.6-17.9,56.8-55.3C222.4,81.7,221,78.5,219.8,74.9z"/>
				<path class="st5" d="M139.1,19.7c-5.6-12.2-39-15.4-54.9,16.4c-8.8,17.6,0.9,59.3,15.4,58.3c6.9-0.5,12.9-8.1,16.7-19.6
					c4.7-14.2,3.8-35.8,8.8-46.5C128.9,20.4,139.5,20.6,139.1,19.7z"/>
				<path class="st5" d="M196.5,20.7c5.6-12.2,39.5-16.4,55.4,15.4c8.8,17.6-0.9,59.3-15.4,58.3c-6.9-0.5-12.9-8.1-16.7-19.6
					C215.1,60.6,216,39,211,28.3C207.2,20.4,196.1,21.6,196.5,20.7z"/>
				<line class="st5" x1="167.3" y1="138.1" x2="167.3" y2="105"/>
			</g>
			<g>
				<path class="st4" d="M182.1,107.1c-0.2-1.7-7.5-6.3-14.8-6.3c-7.4,0-14.8,4.6-15,6.3c-0.5,3.4,10.3,16.7,14.7,16.7
					c0.1,0,0.2,0,0.2,0c0.1,0,0.2,0,0.2,0C171.9,123.8,182.6,110.5,182.1,107.1z"/>
				<circle class="st4" cx="139.9" cy="74.5" r="9.2"/>
				<circle class="st4" cx="194.7" cy="74.6" r="9.2"/>
			</g>
		</g>
		<g>
			<g>
				<path class="st6" d="M95.2,110.7c0,0-6.6,17.1-23.7,6.3"/>
				<path class="st6" d="M95,110.7c0,0,6.6,17.1,23.7,6.3"/>
				<g>
					<path class="st5" d="M113.8,81.3"/>
					<path class="st5" d="M115.2,78.1"/>
					<path class="st5" d="M114.5,79.8"/>
					<path class="st5" d="M110.8,86.5c-3.2,4.7-7,7.6-11.1,7.9C87.3,95.3,78.4,65,81.6,45.2h-6.3c0,0-18-31.4-21.2-33.8
						S37.3,33.2,37.3,89c0,40.9,28.8,52.5,57.8,52.7c15.5,0.1,31.1,0.8,42.2-9.9C127.2,122.1,118.3,105.8,110.8,86.5z"/>
				</g>
				<g>
					<line class="st7" x1="7.6" y1="96.8" x2="50.5" y2="94"/>
					<line class="st7" x1="14.8" y1="118" x2="50.5" y2="106.5"/>
				</g>
			</g>
			<g>
				<circle class="st4" cx="68.6" cy="79.4" r="8"/>
				<g>
					<path class="st4" d="M104.9,103c-0.2-5.1-19.4-5.1-19.6,0c-0.2,5,6.3,9.9,9.7,10l0,0l0,0l0,0l0,0
						C98.7,112.8,105.1,108,104.9,103z"/>
				</g>
				<path class="st4" d="M95.1,128.6L95.1,128.6L95.1,128.6c7,0,8.5-6.5,8.5-6.5l-8.5-9.5v-0.1l0,0l0,0v0.1l-8.5,9.5
					C86.5,122.1,88,128.6,95.1,128.6"/>
			</g>
		</g>
	</g>
</g>
</svg>
